<?xml version="1.0" encoding="UTF-8"?>
<svg width="40px" height="40px" viewBox="0 0 40 40" version="1.1" xmlns="http://www.w3.org/2000/svg" xmlns:xlink="http://www.w3.org/1999/xlink">
    <title>Advisory</title>
    <defs>
        <linearGradient x1="0%" y1="0%" x2="100%" y2="100%" id="advisoryGradient">
            <stop stop-color="#2C3E50" offset="0%"></stop>
            <stop stop-color="#4CA1AF" offset="100%"></stop>
        </linearGradient>
    </defs>
    <g stroke="none" stroke-width="1" fill="none" fill-rule="evenodd">
        <!-- Document/report -->
        <rect stroke="url(#advisoryGradient)" stroke-width="1.5" x="7" y="10" width="18" height="22" rx="2"></rect>
        <rect fill="url(#advisoryGradient)" fill-opacity="0.1" x="7" y="10" width="18" height="22" rx="2"></rect>
        
        <!-- Document lines -->
        <path d="M11,16 L21,16" stroke="url(#advisoryGradient)" stroke-width="1.5" stroke-linecap="round"></path>
        <path d="M11,20 L21,20" stroke="url(#advisoryGradient)" stroke-width="1.5" stroke-linecap="round"></path>
        <path d="M11,24 L18,24" stroke="url(#advisoryGradient)" stroke-width="1.5" stroke-linecap="round"></path>
        <path d="M11,28 L16,28" stroke="url(#advisoryGradient)" stroke-width="1.5" stroke-linecap="round"></path>
        
        <!-- Advisor figure -->
        <circle fill="url(#advisoryGradient)" cx="30" cy="17" r="4"></circle>
        <path d="M24,33 C24,27 36,27 36,33" stroke="url(#advisoryGradient)" stroke-width="1.5" stroke-linecap="round"></path>
        <rect fill="url(#advisoryGradient)" x="28" y="21" width="4" height="8" rx="1"></rect>
        
        <!-- Speech/thought bubble -->
        <path d="M25,13 L22,16 L26,16 C27.105,16 28,15.105 28,14 L28,12 C28,10.895 27.105,10 26,10 L24,10 C22.895,10 22,10.895 22,12 L22,14 C22,15.105 22.895,16 24,16 L21,13" stroke="url(#advisoryGradient)" stroke-width="1.5" fill="url(#advisoryGradient)" fill-opacity="0.2"></path>
        
        <!-- Connection between advisor and document -->
        <path d="M22,24 C22,24 25,23 26,21" stroke="url(#advisoryGradient)" stroke-width="1.5" stroke-linecap="round" stroke-dasharray="2,2"></path>
    </g>
</svg> 