<?xml version="1.0" encoding="UTF-8"?>
<svg width="60px" height="60px" viewBox="0 0 60 60" version="1.1" xmlns="http://www.w3.org/2000/svg" xmlns:xlink="http://www.w3.org/1999/xlink">
    <title>AI Strategy</title>
    <defs>
        <linearGradient x1="0%" y1="0%" x2="100%" y2="100%" id="aiStrategyGradient">
            <stop stop-color="#4776E6" offset="0%"></stop>
            <stop stop-color="#8E54E9" offset="100%"></stop>
        </linearGradient>
    </defs>
    <g stroke="none" stroke-width="1" fill="none" fill-rule="evenodd">
        <!-- Brain outline -->
        <path d="M30,10 C41.0457,10 50,18.9543 50,30 C50,41.0457 41.0457,50 30,50 C18.9543,50 10,41.0457 10,30 C10,18.9543 18.9543,10 30,10 Z" stroke="url(#aiStrategyGradient)" stroke-width="2"></path>
        
        <!-- Circuit patterns -->
        <circle fill="url(#aiStrategyGradient)" cx="18" cy="25" r="2"></circle>
        <circle fill="url(#aiStrategyGradient)" cx="30" cy="20" r="2"></circle>
        <circle fill="url(#aiStrategyGradient)" cx="42" cy="25" r="2"></circle>
        <circle fill="url(#aiStrategyGradient)" cx="24" cy="35" r="2"></circle>
        <circle fill="url(#aiStrategyGradient)" cx="36" cy="35" r="2"></circle>
        <circle fill="url(#aiStrategyGradient)" cx="30" cy="42" r="2"></circle>
        
        <!-- Circuit connections -->
        <path d="M18,25 L24,35" stroke="url(#aiStrategyGradient)" stroke-width="1.5"></path>
        <path d="M30,20 L24,35" stroke="url(#aiStrategyGradient)" stroke-width="1.5"></path>
        <path d="M30,20 L36,35" stroke="url(#aiStrategyGradient)" stroke-width="1.5"></path>
        <path d="M42,25 L36,35" stroke="url(#aiStrategyGradient)" stroke-width="1.5"></path>
        <path d="M24,35 L30,42" stroke="url(#aiStrategyGradient)" stroke-width="1.5"></path>
        <path d="M36,35 L30,42" stroke="url(#aiStrategyGradient)" stroke-width="1.5"></path>
        
        <!-- Central gear/cog representing strategy -->
        <path d="M30,26 L32,28 L30,30 L28,28 Z" fill="url(#aiStrategyGradient)"></path>
        <circle fill="url(#aiStrategyGradient)" cx="30" cy="28" r="1"></circle>
    </g>
</svg> 