<?xml version="1.0" encoding="UTF-8"?>
<svg width="24px" height="24px" viewBox="0 0 24 24" version="1.1" xmlns="http://www.w3.org/2000/svg" xmlns:xlink="http://www.w3.org/1999/xlink">
    <title>Facebook</title>
    <g stroke="none" stroke-width="1" fill="none" fill-rule="evenodd">
        <path d="M24,12.073 C24,5.40365 18.62976,0 12,0 C5.37024,0 0,5.40365 0,12.073 C0,18.0988 4.38552,23.0935 10.125,24 L10.125,15.563 L7.07808,15.563 L7.07808,12.073 L10.125,12.073 L10.125,9.41306 C10.125,6.38751 11.9166,4.71627 14.6576,4.71627 C15.9701,4.71627 17.3438,4.95189 17.3438,4.95189 L17.3438,7.92146 L15.8306,7.92146 C14.3398,7.92146 13.875,8.85225 13.875,9.8069 L13.875,12.073 L17.2031,12.073 L16.6711,15.563 L13.875,15.563 L13.875,24 C19.6145,23.0935 24,18.0988 24,12.073 Z" fill="#1877F2" fill-rule="nonzero"></path>
    </g>
</svg> 