<?xml version="1.0" encoding="UTF-8"?>
<svg width="24px" height="24px" viewBox="0 0 24 24" version="1.1" xmlns="http://www.w3.org/2000/svg" xmlns:xlink="http://www.w3.org/1999/xlink">
    <title>GitHub</title>
    <g stroke="none" stroke-width="1" fill="none" fill-rule="evenodd">
        <path d="M12,2 C6.477,2 2,6.477 2,12 C2,16.418 4.865,20.166 8.839,21.489 C9.339,21.581 9.521,21.277 9.521,21.015 C9.521,20.78 9.512,20.044 9.512,19.274 C7,19.774 6.35,18.686 6.15,18.121 C6.037,17.839 5.55,16.931 5.125,16.695 C4.775,16.511 4.275,16.011 5.116,16.001 C5.9,15.991 6.463,16.771 6.65,17.063 C7.55,18.587 8.988,18.157 9.56,17.896 C9.652,17.236 9.927,16.796 10.225,16.549 C8.13,16.302 5.933,15.499 5.933,11.735 C5.933,10.648 6.314,9.749 6.675,9.067 C6.573,8.816 6.233,7.752 6.773,6.316 C6.773,6.316 7.616,6.054 9.522,7.407 C10.312,7.183 11.152,7.071 11.991,7.071 C12.831,7.071 13.67,7.183 14.461,7.407 C16.366,6.043 17.209,6.316 17.209,6.316 C17.749,7.752 17.409,8.816 17.307,9.067 C17.669,9.749 18.049,10.639 18.049,11.735 C18.049,15.509 15.842,16.302 13.747,16.549 C14.117,16.857 14.437,17.454 14.437,18.378 C14.437,19.693 14.428,20.684 14.428,21.015 C14.428,21.277 14.61,21.59 15.11,21.489 C17.0883337,20.8238576 18.7700334,19.5348655 19.9119152,17.8408389 C21.0537971,16.1468122 21.6000166,14.0975893 21.6,12 C21.6,6.477 17.123,2 11.6,2 L12,2 Z" fill="#161614" fill-rule="nonzero"></path>
    </g>
</svg> 