<?xml version="1.0" encoding="UTF-8"?>
<svg width="24px" height="24px" viewBox="0 0 24 24" version="1.1" xmlns="http://www.w3.org/2000/svg" xmlns:xlink="http://www.w3.org/1999/xlink">
    <title>LinkedIn</title>
    <g stroke="none" stroke-width="1" fill="none" fill-rule="evenodd">
        <path d="M19,3 C20.105,3 21,3.895 21,5 L21,19 C21,20.105 20.105,21 19,21 L5,21 C3.895,21 3,20.105 3,19 L3,5 C3,3.895 3.895,3 5,3 L19,3 Z M18.5,18.5 L18.5,13.2 C18.5,11.566 18.466,10.335 16.767,10.335 C15.2018864,10.335 14.5,11.3 14.5,13.2 L14.5,18.5 L12.2754,18.5 L12.2754,9 L14.4,9 L14.4,10.077 C14.788,9.407 15.6,8.9 16.8,8.9 C19.1,8.9 20.5,10.514 20.5,13.2 L20.5,18.5 L18.5,18.5 Z M8,18.5 L5.5,18.5 L5.5,9 L8,9 L8,18.5 Z M6.75,5.5 C7.57842712,5.5 8.25,6.17157288 8.25,7 C8.25,7.82842712 7.57842712,8.5 6.75,8.5 C5.92157288,8.5 5.25,7.82842712 5.25,7 C5.25,6.17157288 5.92157288,5.5 6.75,5.5 Z" fill="#0A66C2" fill-rule="nonzero"></path>
    </g>
</svg> 