<?xml version="1.0" encoding="UTF-8"?>
<svg width="40px" height="40px" viewBox="0 0 40 40" version="1.1" xmlns="http://www.w3.org/2000/svg" xmlns:xlink="http://www.w3.org/1999/xlink">
    <title>Strategy</title>
    <defs>
        <linearGradient x1="0%" y1="0%" x2="100%" y2="100%" id="strategyGradient">
            <stop stop-color="#4776E6" offset="0%"></stop>
            <stop stop-color="#8E54E9" offset="100%"></stop>
        </linearGradient>
    </defs>
    <g stroke="none" stroke-width="1" fill="none" fill-rule="evenodd">
        <!-- Chess board base -->
        <rect stroke="url(#strategyGradient)" stroke-width="1.5" x="8" y="8" width="24" height="24" rx="2"></rect>
        
        <!-- Chess board pattern -->
        <rect fill="url(#strategyGradient)" fill-opacity="0.1" x="8" y="8" width="6" height="6"></rect>
        <rect fill="url(#strategyGradient)" fill-opacity="0.1" x="20" y="8" width="6" height="6"></rect>
        <rect fill="url(#strategyGradient)" fill-opacity="0.1" x="14" y="14" width="6" height="6"></rect>
        <rect fill="url(#strategyGradient)" fill-opacity="0.1" x="26" y="14" width="6" height="6"></rect>
        <rect fill="url(#strategyGradient)" fill-opacity="0.1" x="8" y="20" width="6" height="6"></rect>
        <rect fill="url(#strategyGradient)" fill-opacity="0.1" x="20" y="20" width="6" height="6"></rect>
        <rect fill="url(#strategyGradient)" fill-opacity="0.1" x="14" y="26" width="6" height="6"></rect>
        <rect fill="url(#strategyGradient)" fill-opacity="0.1" x="26" y="26" width="6" height="6"></rect>
        
        <!-- King piece -->
        <path d="M20,11 L20,13 M18,15 L22,15 M19,13 L19,15 L21,15 L21,13 L19,13 Z M17,17 L23,17 L22,21 L18,21 L17,17 Z M16,23 L24,23 L24,25 L16,25 L16,23 Z" stroke="url(#strategyGradient)" stroke-width="1.5" stroke-linecap="round" stroke-linejoin="round"></path>
        
        <!-- Knight piece -->
        <path d="M29,25 C28,22 31,21 31,19 C31,17 29,16 27,17 C25,18 26,21 26,21 L29,25 Z" fill="url(#strategyGradient)" fill-opacity="0.7"></path>
        <circle fill="#FFFFFF" fill-opacity="0.5" cx="29" cy="18" r="1"></circle>
        
        <!-- Pawn pieces -->
        <circle fill="url(#strategyGradient)" cx="11" cy="17" r="2"></circle>
        <path d="M10,19 L12,19 L12.5,21 L9.5,21 L10,19 Z" fill="url(#strategyGradient)"></path>
        
        <!-- Strategy lines -->
        <path d="M8,32 L14,38" stroke="url(#strategyGradient)" stroke-width="1.5" stroke-linecap="round" stroke-dasharray="2,2"></path>
        <path d="M32,8 L38,14" stroke="url(#strategyGradient)" stroke-width="1.5" stroke-linecap="round" stroke-dasharray="2,2"></path>
        <circle fill="url(#strategyGradient)" cx="14" cy="38" r="1.5"></circle>
        <circle fill="url(#strategyGradient)" cx="38" cy="14" r="1.5"></circle>
    </g>
</svg> 